<?xml version="1.0" standalone="no"?>
<!DOCTYPE svg PUBLIC "-//W3C//DTD SVG 20010904//EN"
 "http://www.w3.org/TR/2001/REC-SVG-20010904/DTD/svg10.dtd">
<svg version="1.0" xmlns="http://www.w3.org/2000/svg"
 width="230.000000pt" height="230.000000pt" viewBox="0 0 230.000000 230.000000"
 preserveAspectRatio="xMidYMid meet">
<metadata>
Created by potrace 1.14, written by Peter Selinger 2001-2017
</metadata>
<g transform="translate(0.000000,230.000000) scale(0.100000,-0.100000)"
fill="#000000" stroke="none">
<path d="M0 1150 l0 -1150 1150 0 1150 0 0 1150 0 1150 -1150 0 -1150 0 0
-1150z m1397 889 c92 -54 242 -211 286 -298 44 -88 48 -141 15 -174 -30 -29
-224 -180 -309 -240 -65 -46 -93 -54 -134 -38 -13 5 -28 3 -42 -7 -22 -13 -23
-21 -23 -121 l0 -106 200 -309 c111 -171 199 -317 198 -325 -3 -13 -21 -17
-95 -19 l-91 -3 -103 163 -104 162 -5 -214 -5 -215 -80 0 -80 0 -3 208 c-1
114 -6 207 -10 207 -4 -1 -50 -69 -103 -153 l-95 -152 -91 -3 c-119 -4 -121 2
-45 122 33 50 123 189 201 310 127 196 141 223 141 262 0 43 -1 44 -33 44 -24
0 -55 -17 -122 -65 -50 -35 -101 -65 -114 -65 -29 0 -91 60 -91 90 0 12 27 63
60 113 43 66 60 101 60 125 0 25 14 52 58 110 104 138 102 135 91 174 -14 51
-3 72 127 244 165 220 163 217 228 212 38 -3 72 -15 113 -39z"/>
<path d="M1238 1992 c-40 -43 -198 -258 -198 -269 0 -5 19 -18 43 -29 55 -24
216 -183 254 -252 l30 -52 105 79 c57 44 124 97 148 119 l44 39 -38 78 c-61
124 -238 286 -337 309 -20 4 -32 -1 -51 -22z"/>
<path d="M969 1513 l-86 -115 80 -80 79 -79 72 52 c39 29 90 66 114 83 23 16
42 35 42 42 0 31 -180 215 -208 214 -4 -1 -46 -53 -93 -117z"/>
<path d="M825 1257 c-80 -129 -77 -122 -57 -140 17 -15 23 -13 101 43 45 32
83 61 84 64 3 9 -52 75 -71 85 -15 8 -24 0 -57 -52z"/>
<path d="M1096 1194 c-14 -13 -16 -65 -13 -427 2 -405 2 -412 22 -412 20 0 20
8 23 428 1 261 -1 427 -7 427 -5 0 -17 -7 -25 -16z"/>
<path d="M932 795 c-46 -71 -113 -175 -148 -230 -61 -93 -64 -100 -43 -103 12
-2 27 2 34 10 7 7 65 96 129 197 102 159 117 188 114 220 -3 35 -4 34 -86 -94z"/>
<path d="M1190 889 c0 -27 26 -76 124 -229 104 -163 128 -196 150 -198 14 -2
26 -1 26 2 0 4 -30 52 -66 109 -37 56 -98 152 -137 212 -92 144 -97 149 -97
104z"/>
</g>
</svg>
